<?xml version="1.0" encoding="utf-8"?>
<!-- Generator: Adobe Illustrator 22.0.1, SVG Export Plug-In . SVG Version: 6.00 Build 0)  -->
<svg version="1.1" id="katman_1" xmlns="http://www.w3.org/2000/svg" xmlns:xlink="http://www.w3.org/1999/xlink" x="0px" y="0px"
	 viewBox="0 0 202.2 51.8" style="enable-background:new 0 0 202.2 51.8;" xml:space="preserve">
<style type="text/css">
	.st0{fill:#098DCD;}
	.st1{fill:#008ECE;}
	.st2{fill:#E42328;}
	.st3{font-family:'GothamNarrow-Light';}
	.st4{font-size:13.8999px;}
</style>
<g>
	<g>
		<g>
			<g>
				<path class="st0" d="M53.4,0h2.5v36.4h-2.5V0z"/>
			</g>
		</g>
		<g>
			<g>
				<path class="st1" d="M59.8,25.5V8.7h2.5V25c0,5.5,3.1,9,8.4,9c5.2,0,9.2-4,9.2-9.5V8.7h2.5v27.7h-1.3L80,30.8
					c-1.8,3.1-4.7,5.6-9.6,5.6C63.7,36.4,59.8,31.8,59.8,25.5z"/>
			</g>
		</g>
		<g>
			<g>
				<path class="st0" d="M111.1,21.9c-0.2-7.5-4.9-13.3-12.2-13.3c-7.2,0-12.6,6.1-12.6,13.8v0.1c0,8.3,6,13.8,13,13.8
					c5.1,0,9.1-2.1,11.8-5l-1.8-1.6c-2.2,2.3-5.8,4.2-9.9,4.2c-5.1,0-9.7-3.1-10.3-9.6h22L111.1,21.9z M98.8,11
					c6.1,0,9.2,5.6,9.6,10.9H89C89.5,16,93.6,11,98.8,11z"/>
			</g>
		</g>
		<g>
			<g>
				<path class="st0" d="M41.3,17.7c3-1.2,6.2-3.7,6.2-8.6V9c0-2.3-0.8-4.2-2.3-5.7c-2-2-5.4-3.2-9.5-3.2h-15v21.9H22l1.4-2.6h12.3
					c7.2,0,11.1,2.6,11.1,7.1v0.1c0,4.6-4,7.4-10.2,7.4h-0.1v2.5c7.8,0,13-3.9,13-9.9v-0.1C49.5,21.3,45.7,18.8,41.3,17.7z
					 M35.4,16.8h-12V2.5h12.3c5.8,0,9.1,2.7,9.1,6.7v0.1C44.8,14.2,40.9,16.8,35.4,16.8z"/>
			</g>
		</g>
	</g>
</g>
<g>
	<path d="M34.3,32.7L34.3,32.7c-1.4,1.4-3.3,2.2-5.3,2.2c-2.9,0-5.1-2.1-5.4-5.1h11.8l0-0.1c0-0.2,0-0.3,0-0.6
		c0-4.3-2.7-7.3-6.7-7.3c-3.9,0-6.9,3.2-6.9,7.3v0.1c0,4.2,3.1,7.3,7.1,7.3c3.2,0,5.3-1.4,6.4-2.6l0.1-0.1L34.3,32.7z M28.7,23.3
		c3.3,0,4.7,2.7,5,5.1h-10C23.9,25.4,26,23.3,28.7,23.3z"/>
	<path d="M15.3,21.8c-2.2,0-3.7,0.7-4.7,2.2v-7.3H9.1v19.8h1.6v-8.1c0-2.7,1.9-4.8,4.5-4.8c2.6,0,4.1,1.7,4.1,4.6v8.3h1.6v-8.5
		C20.8,24.3,18.6,21.8,15.3,21.8z"/>
	<path d="M4.2,16.7H2.6v5.1H0v1.6h2.6v9.2c0,2.4,1.5,3.9,4,3.9c0.5,0,0.9-0.1,1.4-0.2l0.1,0v-1.5l-0.2,0c-0.4,0.1-0.7,0.1-1.1,0.1
		c-1.7,0-2.6-0.9-2.6-2.5v-9.1H8v-1.6H4.2V16.7z"/>
</g>
<g>
	<path class="st2" d="M171.9,21.9c-0.2-7.5-4.9-13.3-12.2-13.3c-7.2,0-12.6,6.1-12.6,13.8v0.1c0,8.3,6,13.8,13,13.8
		c5.1,0,9.1-2.1,11.8-5l-1.8-1.6c-2.2,2.3-5.8,4.2-9.9,4.2c-5.1,0-9.7-3.1-10.3-9.6h22L171.9,21.9z M159.6,11
		c6.1,0,9.2,5.6,9.6,10.9h-19.4C150.2,16,154.4,11,159.6,11z"/>
	<path class="st2" d="M115,0h15.3c4.5,0,8.1,1.4,10.2,3.6c1.7,1.7,2.8,4.2,2.8,6.8v0.1c0,6.1-3.8,10.6-9.9,11.4l10,14.5h-3.4
		L130,21.9l-12.3,0l0,14.5H115V0z M129.9,19.3c6.1,0,10.6-3.5,10.6-8.7v-0.1c0-4.9-3.8-8-10.4-8h-12.4v16.8H129.9z"/>
	<path class="st2" d="M199.6,0v15c-2.2-3.3-5.6-6.3-10.9-6.3c-6.4,0-12.9,5.3-12.9,13.9v0.1c0,8.6,6.5,13.8,12.9,13.8
		c5.3,0,8.6-3.1,10.9-6.6l1.2,6.6h1.3V0H199.6z M199.7,22.6c0,6.8-5.3,11.4-10.8,11.4c-5.6,0-10.4-4.5-10.4-11.4v-0.1
		c0-7.1,4.6-11.3,10.4-11.3c5.5,0,10.8,4.6,10.8,11.4V22.6z"/>
</g>
<text transform="matrix(1 0 0 1 96.543 51.8383)" class="st3 st4">CLIENT CENTRAL</text>
</svg>
